<svg width="20" height="20" viewBox="0 0 20 20" fill="none" xmlns="http://www.w3.org/2000/svg">
<g opacity="0.5" clip-path="url(#clip0)">
<path d="M8.0733 9.99577L15.5552 17.478C15.7613 17.6836 15.8746 17.9584 15.8746 18.2514C15.8746 18.5446 15.7613 18.8192 15.5552 19.025L14.8996 19.6803C14.6939 19.8865 14.419 20 14.126 20C13.833 20 13.5583 19.8865 13.3525 19.6803L4.44403 10.772C4.23736 10.5655 4.12419 10.2896 4.125 9.99626C4.12419 9.70163 4.2372 9.42602 4.44403 9.21935L13.3442 0.319677C13.55 0.113498 13.8247 1.05938e-06 14.1178 1.03375e-06C14.4109 1.00813e-06 14.6855 0.113498 14.8915 0.319676L15.547 0.974961C15.9735 1.40147 15.9735 2.09577 15.547 2.52211L8.0733 9.99577Z" fill="white"/>
</g>
<defs>
<clipPath id="clip0">
<rect width="20" height="20" fill="white" transform="matrix(1 -8.74228e-08 -8.74228e-08 -1 0 20)"/>
</clipPath>
</defs>
</svg>
